<?xml version="1.0" encoding="UTF-8"?>
<svg xmlns="http://www.w3.org/2000/svg" version="1.1" xmlns:serif="http://www.serif.com/" xmlns:xlink="http://www.w3.org/1999/xlink" viewBox="0 0 5206.8 1553.6">
  <!-- Generator: Adobe Illustrator 30.0.0, SVG Export Plug-In . SVG Version: 2.1.1 Build 123)  -->
  <defs>
    <style>
      .st0 {
        fill: url(#Gradiente_sem_nome_161);
      }

      .st1 {
        fill: #010101;
      }

      .st2 {
        fill: #fff;
      }

      .st3 {
        fill: url(#Gradiente_sem_nome_16);
        opacity: .7;
      }
    </style>
    <linearGradient id="Gradiente_sem_nome_16" data-name="Gradiente sem nome 16" x1="74.5" y1="776.8" x2="1380.4" y2="776.8" gradientUnits="userSpaceOnUse">
      <stop offset="0" stop-color="#fa2741"/>
      <stop offset="1" stop-color="#fd563e"/>
    </linearGradient>
    <linearGradient id="Gradiente_sem_nome_161" data-name="Gradiente sem nome 16" x1="146.2" y1="776.8" x2="1308.7" y2="776.8" xlink:href="#Gradiente_sem_nome_16"/>
  </defs>
  <g id="Camada_1">
    <path class="st1" d="M4533.9,1578.6l-.7-.6c-.3,1.5-.2,1.8.7.6Z"/>
  </g>
  <g id="Camada_2">
    <g>
      <g>
        <path class="st3" d="M520.2,1293.6c0,.1,1.6,1.9,4.5,4.8l-17.2,25.2,12.1-30.6c.2.2.4.4.5.6ZM819.2,108.4l-.6,2c2.5.2,4.5.5,6.1.8-2.1-1.2-4-2.1-5.5-2.8ZM492.1,1260.8c-78.3-91.3-264.1-319.9-334.7-661.3-7.5-48.1-22-124.5,2.2-216.2C215.5,172.5,501.2,106.6,733.5,108.3c7.9,0,15.1.1,21.8.2l54.5-72.7C541.9,19.9,148.7,81.1,85.7,356.8c-10.8,47.1-10.5,75.8-11.2,87.2h0c-1.7,315.3,205.9,673.3,398.1,889.4l9.8-36.2,9.8-36.3ZM527.2,1289.1c.7-.4,1.3-.8,2.1-1.2-.3-.6-.7-1.2-1-1.8-.4,1.1-.8,2.1-1.1,3ZM1379.5,431.3c-8.8-161.1-89.3-316.2-444.1-381-27.9-5.1-59.5-9.3-93.5-12.2l-22.3,69c30.6,2.8,229.1,32.8,324.7,88.4,175.9,102.2,169.2,243.8,161.1,351.2h0c-3.4,31.4-43.6,243.2-181.6,500,0,.3-.2.5-.4.8-57.7,99.6-289.4,415.6-404.4,398.4-40.6-6.1-124.6-80.5-169.3-123.1l-17.8,22.2-22.6,28.1c50.1,52.2,98.1,93.6,139.8,120.8,109.5,71.4,197.9-10.9,335.7-156.9,122.3-129.5,218.7-303.5,234.5-331.9,81.5-147,170.8-379.6,160.2-573.8Z"/>
        <path class="st0" d="M1144.3,195.4c-95.6-55.5-294.1-85.5-324.7-88.4l-.4,1.3c1.5.7,3.3,1.6,5.5,2.8-1.6-.3-3.6-.6-6.1-.8l-107.8,333.1c.6.2,1.3,0,2.2-.2,10.3-2.3,164-34.6,164.9-34,4.8,2.6.1,3.7-6.1,15.5-61.6,116.9-60.1,117.7-67,126.9-17,22.7-139.4,27.9-143.9,40.7-.3.8-92.1,274.8-93.5,279.1-2.5,8,4.9,2.8,103.7-16.8,13.1-2.6,23-8.5,18.2,4.1-5.1,13.4-24.8,65.3-49.1,129.5l-120.5,304.6c.2.2.4.4.5.6,0,.1,1.6,1.9,4.5,4.8l257.6-377.5.5-.3c83-125.6,153.5-232,153.5-232.4-.3-3.6-131.3,28-131.8,23.6,0-.6,168.5-284.3,169-285.4,6.1-12.4,4.9,4,16.6,60.6,69.8,336.9,68.3,337.2,74.8,366.4l37,180.5-129.5-.4c-5.4,0-6-2.4-39.2-143.9h0c-8-32.5-7-34.2-9.8-34,0,0,0,0-.2.1l-43.4,57.2-330.2,410.1c44.7,42.6,128.7,117,169.3,123.1,115,17.2,346.7-298.8,404.4-398.4.2-.3.3-.6.4-.8,138-256.8,178.2-468.6,181.6-500h0c8.1-107.5,14.8-249.1-161.1-351.2ZM527.2,1289c.3-.9.7-1.9,1.1-3,.3.6-1.5-3.6-1.2-3-.7.4.7,5.6,0,6ZM540.3,1081.7l-48.2,179c-78.3-91.3-264.1-319.9-334.7-661.3-7.5-48.1-22-124.5,2.2-216.2C215.5,172.4,501.2,106.5,733.5,108.2c7.9,0,15.1.1,21.8.2l-400.6,533.9c-4.7,5.9,1.1,4.8,4.4,3.9,3.7-1,143.5-29.7,143.6-29.7,3,.4-1.2,12.7-1.5,13.7-15.7,46.8-83.9,263.7-86,271.9-4.4,17-8.1,63.7,24.3,95.8,45.7,45.4,98.2,31.2,115.7,28.8l-14.8,54.8Z"/>
      </g>
      <g>
        <path class="st2" d="M1919.5,1157.2v-601.6h-210.1v-125.5h572.9v125.5h-210.6v601.6h-152.2Z"/>
        <path class="st2" d="M2215.8,886.6c0-174.8,105.8-281.2,267.6-281.2s267.6,105.8,267.6,281.2-104.3,282.2-267.6,282.2-267.6-104.8-267.6-282.2ZM2601.3,887.1c0-107.3-46.4-169.3-117.9-169.3s-118.4,62-118.4,169.3,45.9,169.3,118.4,169.3,117.9-61,117.9-169.3Z"/>
        <path class="st2" d="M3180.8,818.1c-8.6-56.9-46.4-97.2-106.8-97.2s-117.9,61.5-117.9,165.8,45.3,166.8,118.4,166.8,97.2-35.3,106.3-94.2h137.1c-7.6,127.5-102.8,209.6-244.9,209.6s-266.1-105.8-266.1-282.2,103.3-281.2,265-281.2,238.8,90.2,245.4,212.6h-136.6Z"/>
        <path class="st2" d="M3368.2,1002c0-98.3,75.6-155.2,210.1-163.3l136-8.1v-35.8c0-50.4-35.3-79.6-90.7-79.6s-89.7,27.2-96.7,67h-134.5c5.5-104.8,94.7-176.9,237.8-176.9s228.8,71.6,228.8,180.4v371.4h-142.1v-82.6h-3c-30.2,57.4-97.2,91.2-164.8,91.2-102.8,0-180.9-66.5-180.9-163.8ZM3714.4,959.2v-39.3l-113.9,7.1c-54.9,4-86.2,28.7-86.2,67s33.3,65.5,83.1,65.5,116.9-41.8,116.9-100.3Z"/>
        <path class="st2" d="M4591.1,980.9h-255.5l-55.4,176.4h-156.2l252.4-727.1h178.9l253,727.1h-161.7l-55.4-176.4ZM4368.4,867h190l-93.2-297.8h-3.5l-93.2,297.8Z"/>
        <path class="st2" d="M4872.3,617.1h147.1v540.2h-147.1v-540.2ZM4885.9,541l111.4-156.2h135l-129,156.2h-117.4Z"/>
      </g>
    </g>
  </g>
</svg>